<svg width="48" height="54" viewBox="0 0 48 54" fill="none" xmlns="http://www.w3.org/2000/svg">
<path d="M21.1242 0.749496C22.855 -0.249832 24.9876 -0.249832 26.7185 0.749496L45.0455 11.3306C46.7764 12.3299 47.8426 14.1768 47.8426 16.1754V37.3376C47.8426 39.3363 46.7763 41.1831 45.0455 42.1824L26.7185 52.7635C24.9876 53.7628 22.855 53.7628 21.1242 52.7635L2.79716 42.1824C1.06627 41.1831 0 39.3363 0 37.3376V16.1754C0 14.1768 1.06627 12.3299 2.79716 11.3306L21.1242 0.749496Z" fill="#F3BE97" fill-opacity="0.29"/>
<path fill-rule="evenodd" clip-rule="evenodd" d="M36.6623 17.3504C37.6 17.3504 38.2149 17.6801 38.8298 18.4023C39.4447 19.1245 39.5523 20.1607 39.4139 21.1011L37.9535 31.4003C37.6768 33.38 36.0166 34.8385 34.0643 34.8385H17.293C15.2485 34.8385 13.5575 33.2387 13.3885 31.1663L11.9742 14.0519L9.65296 13.6437C9.03806 13.5338 8.60764 12.9215 8.71524 12.2935C8.82285 11.6514 9.42237 11.2259 10.0526 11.3217L13.719 11.8853C14.2416 11.9811 14.6259 12.4191 14.672 12.9529L14.9641 16.4697C15.0102 16.9736 15.4099 17.3504 15.9018 17.3504H36.6623ZM24.4325 22.4971C23.8532 22.4971 23.3836 22.9667 23.3836 23.546C23.3836 24.1253 23.8532 24.5949 24.4325 24.5949H33.5233C34.1026 24.5949 34.5723 24.1253 34.5723 23.546C34.5723 22.9667 34.1026 22.4971 33.5233 22.4971H24.4325ZM24.4325 28.0914C23.8532 28.0914 23.3836 28.561 23.3836 29.1403C23.3836 29.7196 23.8532 30.1893 24.4325 30.1893H29.3276C29.9069 30.1893 30.3765 29.7196 30.3765 29.1403C30.3765 28.561 29.9069 28.0914 29.3276 28.0914H24.4325ZM33.873 26.3432C33.873 25.7638 34.3426 25.2942 34.9219 25.2942C35.5012 25.2942 35.9708 25.7638 35.9708 26.3432C35.9708 26.9225 35.5012 27.3921 34.9219 27.3921C34.3426 27.3921 33.873 26.9225 33.873 26.3432ZM20.9361 25.2942C20.3568 25.2942 19.8872 25.7638 19.8872 26.3432C19.8872 26.9225 20.3568 27.3921 20.9361 27.3921H32.1247C32.704 27.3921 33.1737 26.9225 33.1737 26.3432C33.1737 25.7638 32.704 25.2942 32.1247 25.2942H20.9361Z" fill="#F47A1F"/>
<path fill-rule="evenodd" clip-rule="evenodd" d="M14.5061 39.7067C14.5061 38.3879 15.5514 37.3203 16.8427 37.3203C18.1186 37.3203 19.1639 38.3879 19.1639 39.7067C19.1639 41.0098 18.1186 42.0774 16.8427 42.0774C15.5514 42.0774 14.5061 41.0098 14.5061 39.7067ZM31.8001 39.7067C31.8001 38.3879 32.8454 37.3203 34.1367 37.3203C35.4126 37.3203 36.4579 38.3879 36.4579 39.7067C36.4579 41.0098 35.4126 42.0774 34.1367 42.0774C32.8454 42.0774 31.8001 41.0098 31.8001 39.7067Z" fill="#254377"/>
</svg>
