<svg width="85" height="95" viewBox="0 0 85 95" fill="none" xmlns="http://www.w3.org/2000/svg">
<path d="M37.5667 1.82411C40.6038 0.0706736 44.3456 0.0706737 47.3826 1.82411L79.5395 20.3899C82.5765 22.1433 84.4474 25.3838 84.4474 28.8907V66.0222C84.4474 69.5291 82.5765 72.7696 79.5395 74.523L47.3826 93.0888C44.3456 94.8422 40.6038 94.8422 37.5667 93.0888L5.40989 74.523C2.37285 72.7696 0.501953 69.5291 0.501953 66.0222V28.8907C0.501953 25.3838 2.37285 22.1433 5.40989 20.3899L37.5667 1.82411Z" fill="#FDDCC4"/>
<path fill-rule="evenodd" clip-rule="evenodd" d="M53.5432 45.4558L46.4856 54.5622C45.924 55.2973 44.9471 55.4902 44.1657 55.075L43.9459 54.931L36.9861 49.7025L30.8565 57.5928C30.5146 58.0543 29.9798 58.3498 29.4157 58.3254C29.0005 58.3254 28.6342 58.1789 28.2924 57.9591C27.5597 57.4194 27.3644 56.4182 27.7795 55.6392L27.9285 55.4194L35.1545 46.015C35.45 45.6243 35.8896 45.3581 36.3755 45.2849C36.8639 45.2336 37.3524 45.3581 37.7675 45.6756L44.5344 50.9993L50.4418 43.3556C50.8349 42.8184 51.4918 42.5253 52.1536 42.5986C52.7861 42.6474 53.3747 43.0626 53.6408 43.6731C53.9095 44.2836 53.8362 44.9674 53.4455 45.5046L53.5432 45.4558ZM51.5164 29.5825C51.5164 28.972 51.5652 28.3615 51.6629 27.751H32.0068C23.7014 27.751 18.8173 32.6839 18.8173 40.9869V59.0556C18.8173 67.3366 23.7014 72.2451 32.0068 72.2451H50.0511C58.3541 72.2451 63.2382 67.3366 63.2382 59.0556V39.3507C62.6277 39.4484 62.0416 39.5192 61.4311 39.5192C55.9609 39.5192 51.5164 35.0771 51.5164 29.5825Z" fill="#F47A1F"/>
<path d="M61.774 23.4034C58.526 23.4034 55.8886 26.0409 55.8886 29.2888C55.8886 32.5367 58.526 35.1741 61.774 35.1741C65.0219 35.1741 67.6593 32.5367 67.6593 29.2888C67.6593 26.0409 65.0219 23.4034 61.774 23.4034Z" fill="#254377"/>
</svg>
