<svg width="55" height="62" viewBox="0 0 55 62" fill="none" xmlns="http://www.w3.org/2000/svg">
<path d="M24.2843 0.861622C26.2742 -0.287207 28.7257 -0.287207 30.7156 0.861622L51.7843 13.0257C53.7741 14.1745 54.9999 16.2976 54.9999 18.5953V42.9233C54.9999 45.221 53.7741 47.3441 51.7843 48.493L30.7156 60.657C28.7257 61.8058 26.2742 61.8058 24.2843 60.657L3.21562 48.493C1.22579 47.3441 0 45.221 0 42.9233V18.5953C0 16.2976 1.22579 14.1745 3.21562 13.0257L24.2843 0.861622Z" fill="#F3BE97" fill-opacity="0.29"/>
<path d="M26.2497 24.6643V18.1514C26.2497 17.4589 26.8021 16.8818 27.5006 16.8818C28.1261 16.8818 28.656 17.3668 28.74 17.981L28.7516 18.1514V24.6643L36.5168 24.6648C40.3832 24.6648 43.5598 27.831 43.7382 31.7797L43.7461 32.1301V40.3167C43.7461 44.2931 40.68 47.5571 36.871 47.7404L36.533 47.7485H18.4679C14.6015 47.7485 11.4402 44.5981 11.2627 40.6349L11.2549 40.2832L11.2549 32.1133C11.2549 28.137 14.3057 24.8571 18.1138 24.673L18.4517 24.6648H26.2496V35.0659L23.6503 32.3817C23.1629 31.8785 22.3669 31.8785 21.8795 32.3817C21.6358 32.6334 21.5221 32.9689 21.5221 33.3044C21.5221 33.5594 21.5949 33.8251 21.7488 34.0501L21.8795 34.2103L26.607 39.1089C26.8344 39.3605 27.1593 39.4947 27.5005 39.4947C27.7712 39.4947 28.042 39.4015 28.2564 39.2248L28.3777 39.1089L33.1052 34.2103C33.5926 33.707 33.5926 32.885 33.1052 32.3817C32.6622 31.9242 31.964 31.8826 31.4746 32.257L31.3344 32.3817L28.7514 35.0659V24.6648L26.2497 24.6643Z" fill="#254377"/>
<rect x="27.647" y="7.8623" width="8" height="8" rx="4" fill="#F47A1F"/>
</svg>
