<svg width="55" height="62" viewBox="0 0 55 62" fill="none" xmlns="http://www.w3.org/2000/svg">
<path d="M24.2843 0.861622C26.2742 -0.287207 28.7257 -0.287207 30.7156 0.861622L51.7843 13.0257C53.7741 14.1745 54.9999 16.2976 54.9999 18.5953V42.9233C54.9999 45.221 53.7741 47.3441 51.7843 48.493L30.7156 60.657C28.7257 61.8058 26.2742 61.8058 24.2843 60.657L3.21562 48.493C1.22579 47.3441 0 45.221 0 42.9233V18.5953C0 16.2976 1.22579 14.1745 3.21562 13.0257L24.2843 0.861622Z" fill="#F3BE97" fill-opacity="0.29"/>
<path fill-rule="evenodd" clip-rule="evenodd" d="M40.9899 19.8084C42.0679 19.8084 42.7748 20.1874 43.4817 21.0177C44.1886 21.8479 44.3123 23.0391 44.1532 24.1202L42.4744 35.9601C42.1563 38.2361 40.2477 39.9128 38.0033 39.9128H18.723C16.3727 39.9128 14.4287 38.0736 14.2343 35.6912L12.6085 16.0164L9.94 15.5471C9.23312 15.4208 8.7383 14.7169 8.862 13.995C8.98571 13.2568 9.67492 12.7677 10.3995 12.8778L14.6143 13.5257C15.2151 13.6358 15.6569 14.1394 15.7099 14.753L16.0457 18.7959C16.0987 19.3753 16.5582 19.8084 17.1237 19.8084H40.9899ZM26.9307 25.7251C26.2648 25.7251 25.7249 26.265 25.7249 26.931C25.7249 27.5969 26.2648 28.1368 26.9307 28.1368H37.3815C38.0475 28.1368 38.5873 27.5969 38.5873 26.931C38.5873 26.265 38.0475 25.7251 37.3815 25.7251H26.9307ZM26.9307 32.1563C26.2648 32.1563 25.7249 32.6962 25.7249 33.3622C25.7249 34.0282 26.2648 34.568 26.9307 34.568H32.5581C33.224 34.568 33.7639 34.0282 33.7639 33.3622C33.7639 32.6962 33.224 32.1563 32.5581 32.1563H26.9307ZM37.7834 30.1466C37.7834 29.4806 38.3233 28.9407 38.9893 28.9407C39.6553 28.9407 40.1952 29.4806 40.1952 30.1466C40.1952 30.8125 39.6553 31.3524 38.9893 31.3524C38.3233 31.3524 37.7834 30.8125 37.7834 30.1466ZM22.9112 28.9407C22.2452 28.9407 21.7054 29.4806 21.7054 30.1466C21.7054 30.8125 22.2452 31.3524 22.9112 31.3524H35.7737C36.4397 31.3524 36.9795 30.8125 36.9795 30.1466C36.9795 29.4806 36.4397 28.9407 35.7737 28.9407H22.9112Z" fill="#254377"/>
<path fill-rule="evenodd" clip-rule="evenodd" d="M15.5193 45.5091C15.5193 43.9931 16.721 42.7657 18.2054 42.7657C19.6722 42.7657 20.8739 43.9931 20.8739 45.5091C20.8739 47.0072 19.6722 48.2345 18.2054 48.2345C16.721 48.2345 15.5193 47.0072 15.5193 45.5091ZM35.4005 45.5091C35.4005 43.9931 36.6022 42.7657 38.0867 42.7657C39.5535 42.7657 40.7552 43.9931 40.7552 45.5091C40.7552 47.0072 39.5535 48.2345 38.0867 48.2345C36.6022 48.2345 35.4005 47.0072 35.4005 45.5091Z" fill="#F47A1F"/>
</svg>
