<svg width="48" height="54" viewBox="0 0 48 54" fill="none" xmlns="http://www.w3.org/2000/svg">
<path d="M21.1242 0.749496C22.855 -0.249832 24.9876 -0.249832 26.7185 0.749496L45.0455 11.3306C46.7764 12.3299 47.8426 14.1768 47.8426 16.1754V37.3376C47.8426 39.3363 46.7763 41.1831 45.0455 42.1824L26.7185 52.7635C24.9876 53.7628 22.855 53.7628 21.1242 52.7635L2.79716 42.1824C1.06627 41.1831 0 39.3363 0 37.3376V16.1754C0 14.1768 1.06627 12.3299 2.79716 11.3306L21.1242 0.749496Z" fill="#F3BE97" fill-opacity="0.29"/>
<path d="M32.5913 26.0173C32.2308 26.3665 32.0652 26.8717 32.1473 27.3671L33.3845 34.2138C33.4889 34.7941 33.2439 35.3814 32.7583 35.7167C32.2823 36.0646 31.6492 36.1064 31.1301 35.8281L24.9667 32.6135C24.7524 32.4993 24.5144 32.4381 24.2709 32.4312H23.8937C23.7629 32.4506 23.6349 32.4924 23.518 32.5564L17.3532 35.7863C17.0484 35.9394 16.7033 35.9937 16.3652 35.9394C15.5413 35.7835 14.9916 34.9987 15.1266 34.1707L16.3652 27.324C16.4473 26.8244 16.2817 26.3164 15.9212 25.9616L10.8961 21.091C10.4759 20.6832 10.3298 20.0709 10.5218 19.5185C10.7083 18.9674 11.1842 18.5652 11.7589 18.4748L18.6752 17.4714C19.2012 17.4171 19.6633 17.0971 19.8998 16.6239L22.9474 10.3756C23.0198 10.2365 23.113 10.1084 23.2258 9.99988L23.351 9.90247C23.4164 9.8301 23.4916 9.77026 23.5751 9.72156L23.7267 9.66589L23.9633 9.56848H24.5492C25.0724 9.62275 25.533 9.93587 25.7738 10.4034L28.8618 16.6239C29.0844 17.079 29.5172 17.3949 30.0168 17.4714L36.9331 18.4748C37.5176 18.5583 38.006 18.9618 38.1994 19.5185C38.3817 20.0765 38.2245 20.6888 37.7959 21.091L32.5913 26.0173Z" fill="#F47A1F"/>
<rect x="20.8767" y="36.5344" width="6.95894" height="6.95894" rx="3.47947" fill="#254377"/>
</svg>
